<svg xmlns="http://www.w3.org/2000/svg" version="1.1" xmlns:xlink="http://www.w3.org/1999/xlink" xmlns:svgjs="http://svgjs.dev/svgjs" width="100%" height="100%" viewBox="0 0 1000 600"><rect width="1000" height="600" x="0" y="0" fill="#ffffff"/><g><rect width="333.3333333333333" height="333.3333333333333" rx="13.333333333333334" ry="13.333333333333334" y="202.03269717505822" fill="#1d57f5" transform="matrix(0.6951762867040973,0,0,0.6951762867040973,0,43.688925145469156)" x="179.8105010986328"/><path d="M326.2253172255617 374.64486376231736L410.76289187656687 374.64486376231736L410.76289187656687 369.87607749995306Q410.76289187656687 293.6993618803659 347.28229552691096 293.6993618803659L347.28229552691096 293.6993618803659Q282.191459660093 293.6993618803659 282.191459660093 368.69936400664227L282.191459660093 368.69936400664227Q282.191459660093 406.4161280817062 297.4887350731321 425.0577471073124Q312.7240781970495 443.69936613291867 346.2913789009651 443.69936613291867Q379.79674731575915 443.69936613291867 393.2979863442713 431.7464343324469Q406.7992253727835 419.8554348210967 408.7810586246752 399.2319825435988L408.7810586246752 399.2319825435988L372.24100804292203 398.4268627850177Q372.24100804292203 421.8372680729885 350.8124360068431 421.8372680729885L350.8124360068431 421.8372680729885Q338.11631673691187 421.8372680729885 332.1708169812368 411.7423049461651Q326.2253172255617 401.64734181934176 326.2253172255617 374.64486376231736L326.2253172255617 374.64486376231736ZM367.905747804409 352.8446979915088L367.905747804409 352.8446979915088L327.0304369841427 352.8446979915088Q328.6406765013047 330.9825999315785 333.16173360718267 323.30299608049813Q337.7447230021822 315.5614599402962 347.8396861290055 315.5614599402962Q357.99658154495046 315.5614599402962 362.5176386508284 324.4797095738088Q367.10062804582793 333.39795920732143 367.905747804409 352.8446979915088Z " fill="#ffffff" transform="matrix(0.6951762867040973,0,0,0.6951762867040973,0,43.688925145469156)"/><path d="M631.9680223151231 388.0421266913941L700.104463312926 388.0421266913941L700.104463312926 384.19853258382574Q700.104463312926 322.8008604759154 648.9397365563341 322.8008604759154L648.9397365563341 322.8008604759154Q596.4771728283554 322.8008604759154 596.4771728283554 383.2501132585816L596.4771728283554 383.2501132585816Q596.4771728283554 413.6494484729861 608.8066240565292 428.6744072571169Q621.0861584781113 443.69936604124786 648.1410676508654 443.69936604124786Q675.1460600170275 443.69936604124786 686.0279238540393 434.06542236903107Q696.9097876910511 424.48139550340596 698.5071255019885 407.85909890833756L698.5071255019885 407.85909890833756L669.0562096128283 407.2101804226442Q669.0562096128283 426.07873331434354 651.7849945320665 426.07873331434354L651.7849945320665 426.07873331434354Q641.5520491807481 426.07873331434354 636.7600357479356 417.9422938398806Q631.9680223151231 409.8058543654177 631.9680223151231 388.0421266913941L631.9680223151231 388.0421266913941ZM665.5620331514025 370.4714107710816L665.5620331514025 370.4714107710816L632.6169408008165 370.4714107710816Q633.9147777722031 352.8507780441773 637.5587046534043 346.6610940267944Q641.2525483411973 340.4214932028198 649.3889878156602 340.4214932028198Q657.575344096715 340.4214932028198 661.2192709779162 347.6095133520385Q664.9131146657091 354.7975335012573 665.5620331514025 370.4714107710816ZM808.1743495841666 440.8041912589236L808.1743495841666 423.53297617816185L762.101137099938 423.53297617816185L762.101137099938 293.6993622328978L725.9613691274769 293.6993622328978L725.9613691274769 440.8041912589236L808.1743495841666 440.8041912589236ZM851.6518881256219 388.0421266913941L919.7384123168331 388.0421266913941L919.7384123168331 384.19853258382574Q919.7384123168331 322.8008604759154 868.5736855602411 322.8008604759154L868.5736855602411 322.8008604759154Q816.1610386388542 322.8008604759154 816.1610386388542 383.2501132585816L816.1610386388542 383.2501132585816Q816.1610386388542 413.6494484729861 828.490489867028 428.6744072571169Q840.7700242886101 443.69936604124786 867.7750166547722 443.69936604124786Q894.8299258275263 443.69936604124786 905.6618728579463 434.06542236903107Q916.543736694958 424.48139550340596 918.1410745058955 407.85909890833756L918.1410745058955 407.85909890833756L888.7400754233271 407.2101804226442Q888.7400754233271 426.07873331434354 871.4688603425653 426.07873331434354L871.4688603425653 426.07873331434354Q861.2359149912469 426.07873331434354 856.4439015584344 417.9422938398806Q851.6518881256219 409.8058543654177 851.6518881256219 388.0421266913941L851.6518881256219 388.0421266913941ZM885.2458989619013 370.4714107710816L885.2458989619013 370.4714107710816L852.3008066113152 370.4714107710816Q853.5487267761101 352.8507780441773 857.2425704639031 346.6610940267944Q860.9364141516961 340.4214932028198 869.072853626159 340.4214932028198Q877.209293100622 340.4214932028198 880.9031367884149 347.6095133520385Q884.5969804762079 354.7975335012573 885.2458989619013 370.4714107710816ZM1008.3407440172729 427.3765702857302L1008.3407440172729 427.3765702857302L1017.2758523972044 440.8041912589236L1040.936418721716 440.8041912589236L1040.936418721716 362.78422255594484Q1040.936418721716 322.8008604759154 992.0179482617551 322.8008604759154L992.0179482617551 322.8008604759154Q967.4089626119993 322.8008604759154 956.8265996145382 332.5845545679077Q946.2941534236691 342.31833185330805 944.3973147731807 362.78422255594484L944.3973147731807 362.78422255594484L973.7983138557493 366.27839901737065Q975.0961508271358 340.4214932028198 991.069528936511 340.4214932028198L991.069528936511 340.4214932028198Q1005.4455692349485 340.4214932028198 1005.4455692349485 360.53796625931403L1005.4455692349485 360.53796625931403L1005.4455692349485 372.06874858201905L985.628597018005 375.91234268958743Q960.3706928825558 380.35493847625736 949.7883298850949 388.1918771111695Q939.2558836942256 396.02881574608165 939.2558836942256 411.0537745302126Q939.2558836942256 426.07873331434354 948.3906593005246 434.8640912744998Q957.4755181002316 443.69936604124786 972.5004768843625 443.69936604124786L972.5004768843625 443.69936604124786Q994.9131230440793 443.69936604124786 1008.3407440172729 427.3765702857302ZM970.903139073425 410.1053552049685L970.903139073425 410.1053552049685Q970.903139073425 393.78255944945084 991.069528936511 389.3399636627809L991.069528936511 389.3399636627809L1005.4455692349485 386.44478888045666L1005.4455692349485 414.89736863778097Q995.8615423693235 425.1303139890993 987.2259348289427 425.1303139890993L987.2259348289427 425.1303139890993Q970.903139073425 425.1303139890993 970.903139073425 410.1053552049685ZM1102.98300931532 345.86242512132566L1088.6069690168824 325.69603525823965L1072.2841732613647 325.69603525823965L1072.2841732613647 440.8041912589236L1108.0745235876832 440.8041912589236L1108.0745235876832 369.5229914458375Q1108.0745235876832 359.5895469340698 1114.9630428973512 354.7975335012573Q1121.8515622070192 350.0055200684448 1139.4222781273318 350.0055200684448L1139.4222781273318 350.0055200684448L1139.4222781273318 324.74761593299553Q1116.0612126423707 324.74761593299553 1102.98300931532 345.86242512132566L1102.98300931532 345.86242512132566ZM1183.2492343149297 335.928980609558L1183.2492343149297 335.928980609558L1171.4189511526738 325.69603525823965L1155.096155397156 325.69603525823965L1155.096155397156 440.8041912589236L1190.8865057234746 440.8041912589236L1190.8865057234746 349.0571007432007Q1199.871530909998 342.9672503390014 1208.6568888701545 342.9672503390014Q1217.4422468303105 342.9672503390014 1220.337421612635 348.0587646113648Q1223.1826795883671 353.20019569031984 1223.1826795883671 364.3815603668824L1223.1826795883671 364.3815603668824L1223.1826795883671 440.8041912589236L1258.6735290751353 440.8041912589236L1258.6735290751353 359.8890477736206Q1258.6735290751353 343.61616882469474 1249.5886702754278 333.1835562470092Q1240.453894669129 322.8008604759154 1221.5853417774297 322.8008604759154Q1202.7167888857305 322.8008604759154 1183.2492343149297 335.928980609558Z " fill="#1d57f5" transform="matrix(0.6951762867040973,0,0,0.6951762867040973,0,43.688925145469156)"/></g></svg>