<svg xmlns="http://www.w3.org/2000/svg" version="1.1" xmlns:xlink="http://www.w3.org/1999/xlink" xmlns:svgjs="http://svgjs.dev/svgjs" width="100%" height="100%" viewBox="0 0 1000 600"><rect width="1000" height="600" x="0" y="0" fill="#ffffff"/><g><rect width="333.3333333333333" height="333.3333333333333" rx="13.333333333333334" ry="13.333333333333334" y="186.53044098442518" fill="#83d7e7" transform="matrix(0.7607653605064404,0,0,0.7607653605064404,-24.95896716330411,31.299867000545873)" x="301.4443054199218"/><path d="M521.5215279789526 428.19712628498775Q490.3575647031819 428.19712628498775 462.0096222053422 421.4386764179532Q433.6616797075027 414.6802265509186 397.05340959439854 401.1633268168494L397.05340959439854 401.1633268168494Q366.0771810371565 390.4624478607113 342.4226065025355 384.2672021492627Q318.76803196791434 378.2596911563431 294.3625185591783 378.2596911563431L294.3625185591783 378.2596911563431Q244.4250834305336 378.2596911563431 205.1885272580271 413.3660835212174L205.1885272580271 413.3660835212174L197.11593436129132 410.737797461815Q229.59404066676322 345.7815848508713 287.60406869214364 311.9893355156983Q345.8018314360527 278.1970861805251 422.7730660328358 278.1970861805251L422.7730660328358 278.1970861805251Q456.5653153680089 278.1970861805251 484.91325786584844 284.20459717344477Q513.4489350822168 290.39984288489313 547.2411844173898 302.6025995892613L547.2411844173898 302.6025995892613Q605.2512124427702 322.8779491903651 645.8019116449778 322.8779491903651L645.8019116449778 322.8779491903651Q699.8695105812548 322.8779491903651 731.0334738570255 291.71398591459433L731.0334738570255 291.71398591459433L739.1060667537612 293.0281289442955Q732.3476168867267 324.1920922200663 699.3063064256686 355.91925965142315Q666.0772612460818 387.64642708278 618.7681121768395 407.92177668388393Q571.4589631075971 428.19712628498775 521.5215279789526 428.19712628498775L521.5215279789526 428.19712628498775Z " fill="#24a3bc" transform="matrix(0.7607653605064404,0,0,0.7607653605064404,-24.95896716330411,31.299867000545873)"/><path d="M741.52765717963 391.5929405161825Q730.4234905129633 391.5929405161825 724.27765717963 385.82210718284927Q718.1109905129633 380.0512738495159 718.1109905129633 367.7387738495159L718.1109905129633 367.7387738495159Q718.1109905129633 357.4054405161825 722.1734905129633 344.94710718284927Q726.21515717963 332.4887738495159 735.3609905129633 323.4262738495159Q744.52765717963 314.3429405161825 758.6109905129633 314.3429405161825L758.6109905129633 314.3429405161825Q775.1109905129633 314.3429405161825 775.1109905129633 328.7387738495159L775.1109905129633 328.7387738495159Q775.1109905129633 337.1554405161825 770.3193238462967 344.19710718284927Q765.52765717963 351.2387738495159 757.5693238462967 355.53044051618264Q749.6109905129633 359.8012738495159 740.6109905129633 360.4054405161825L740.6109905129633 360.4054405161825Q740.3193238462967 364.9054405161825 740.3193238462967 366.40544051618264L740.3193238462967 366.40544051618264Q740.3193238462967 373.7387738495159 742.8609905129633 376.3637738495159Q745.4234905129633 378.9887738495159 751.1109905129633 378.9887738495159L751.1109905129633 378.9887738495159Q759.21515717963 378.9887738495159 764.9859905129633 375.2387738495159Q770.77765717963 371.4887738495159 777.6734905129633 363.8429405161825L777.6734905129633 363.8429405161825L782.77765717963 363.8429405161825Q766.1109905129633 391.5929405161825 741.52765717963 391.5929405161825L741.52765717963 391.5929405161825ZM741.8193238462967 353.19710718284927Q747.3609905129633 352.9054405161825 752.40265717963 349.3012738495159Q757.4234905129633 345.69710718284927 760.4859905129633 340.1554405161825Q763.5693238462967 334.5929405161825 763.5693238462967 328.44710718284927L763.5693238462967 328.44710718284927Q763.5693238462967 322.3012738495159 759.8193238462967 322.3012738495159L759.8193238462967 322.3012738495159Q754.4234905129633 322.3012738495159 749.2359905129633 331.7387738495159Q744.0693238462967 341.19710718284927 741.8193238462967 353.19710718284927L741.8193238462967 353.19710718284927ZM791.77765717963 390.69710718284927L812.1734905129633 295.3012738495159L834.3609905129633 292.3012738495159L823.71515717963 342.4054405161825Q830.9234905129633 341.8012738495159 836.9859905129633 336.0929405161825Q843.0693238462967 330.4054405161825 846.52765717963 321.9887738495159Q849.96515717963 313.59294051618264 849.96515717963 305.4887738495159L849.96515717963 305.4887738495159Q849.96515717963 296.4887738495159 845.3193238462967 290.80127384951584Q840.6734905129633 285.0929405161826 831.3609905129633 285.0929405161826L831.3609905129633 285.0929405161826Q813.0693238462967 285.0929405161826 802.7984905129633 294.6971071828492Q792.52765717963 304.3012738495159 792.52765717963 321.5512738495159L792.52765717963 321.5512738495159Q792.52765717963 327.0929405161825 793.5693238462967 329.2804405161825Q794.6109905129633 331.44710718284927 794.6109905129633 331.7387738495159L794.6109905129633 331.7387738495159Q786.52765717963 331.7387738495159 782.5484905129633 328.3637738495159Q778.5693238462967 324.9887738495159 778.5693238462967 317.19710718284927L778.5693238462967 317.19710718284927Q778.5693238462967 307.5929405161826 786.4443238462967 298.5304405161825Q794.3193238462967 289.4471071828492 806.6109905129633 283.8221071828492Q818.9234905129633 278.1971071828492 831.21515717963 278.1971071828492L831.21515717963 278.1971071828492Q843.0693238462967 278.1971071828492 851.02765717963 282.23877384951584Q858.96515717963 286.3012738495159 862.7984905129633 292.9679405161826Q866.6109905129633 299.6554405161825 866.6109905129633 307.73877384951584L866.6109905129633 307.73877384951584Q866.6109905129633 317.4887738495159 861.2984905129633 326.8012738495159Q855.96515717963 336.0929405161825 846.0693238462967 342.0304405161825Q836.1734905129633 347.94710718284927 823.27765717963 347.94710718284927L823.27765717963 347.94710718284927L822.52765717963 347.94710718284927L813.3609905129633 390.69710718284927L791.77765717963 390.69710718284927ZM881.6109905129633 391.5929405161825Q873.0693238462967 391.5929405161825 867.3609905129633 385.7387738495159Q861.6734905129633 379.9054405161825 861.6734905129633 367.44710718284927L861.6734905129633 367.44710718284927Q861.6734905129633 356.34294051618264 866.09015717963 344.1137738495159Q870.52765717963 331.9054405161825 879.2984905129633 323.4262738495159Q888.0693238462967 314.94710718284927 900.21515717963 314.94710718284927L900.21515717963 314.94710718284927Q906.3609905129633 314.94710718284927 909.3609905129633 317.0512738495159Q912.3609905129633 319.1554405161825 912.3609905129633 322.59294051618264L912.3609905129633 322.59294051618264L912.3609905129633 323.6554405161825L914.02765717963 315.69710718284927L935.6109905129633 315.69710718284927L924.8193238462967 366.69710718284927Q924.21515717963 368.94710718284927 924.21515717963 371.4887738495159L924.21515717963 371.4887738495159Q924.21515717963 377.94710718284927 930.3609905129633 377.94710718284927L930.3609905129633 377.94710718284927Q934.5693238462967 377.94710718284927 937.65265717963 374.0512738495159Q940.71515717963 370.1554405161825 942.52765717963 363.8429405161825L942.52765717963 363.8429405161825L948.8193238462967 363.8429405161825Q943.27765717963 380.0512738495159 935.09015717963 385.82210718284927Q926.9234905129633 391.5929405161825 918.6734905129633 391.5929405161825L918.6734905129633 391.5929405161825Q912.3609905129633 391.5929405161825 908.5484905129633 388.07210718284927Q904.71515717963 384.5512738495159 903.96515717963 377.8012738495159L903.96515717963 377.8012738495159Q899.6109905129633 383.94710718284927 894.2984905129633 387.7804405161825Q888.96515717963 391.5929405161825 881.6109905129633 391.5929405161825L881.6109905129633 391.5929405161825ZM891.3609905129633 377.0512738495159Q895.1109905129633 377.0512738495159 898.7984905129633 373.5304405161825Q902.46515717963 369.9887738495159 903.8193238462967 363.8429405161825L903.8193238462967 363.8429405161825L911.02765717963 329.94710718284927Q911.02765717963 327.9887738495159 909.52765717963 326.1137738495159Q908.02765717963 324.2387738495159 904.8609905129633 324.2387738495159L904.8609905129633 324.2387738495159Q898.8609905129633 324.2387738495159 894.0693238462967 331.2179405161825Q889.27765717963 338.19710718284927 886.5693238462967 348.0304405161825Q883.8609905129633 357.84294051618264 883.8609905129633 365.3429405161825L883.8609905129633 365.3429405161825Q883.8609905129633 372.8429405161825 886.0484905129633 374.94710718284927Q888.21515717963 377.0512738495159 891.3609905129633 377.0512738495159L891.3609905129633 377.0512738495159ZM963.96515717963 391.5929405161825Q952.8609905129633 391.5929405161825 946.71515717963 385.82210718284927Q940.5693238462967 380.0512738495159 940.5693238462967 367.7387738495159L940.5693238462967 367.7387738495159Q940.5693238462967 357.4054405161825 944.6943238462967 344.94710718284927Q948.8193238462967 332.4887738495159 957.90265717963 323.4262738495159Q966.96515717963 314.3429405161825 980.9234905129632 314.3429405161825L980.9234905129632 314.3429405161825Q989.9234905129633 314.3429405161825 993.7359905129634 318.2387738495159Q997.5693238462967 322.1554405161825 997.5693238462967 328.1554405161825L997.5693238462967 328.1554405161825Q997.5693238462967 333.4054405161825 995.3193238462967 336.2387738495159Q993.0693238462967 339.0929405161825 989.6109905129632 339.0929405161825L989.6109905129632 339.0929405161825Q987.0693238462967 339.0929405161825 984.3609905129633 337.3012738495159L984.3609905129633 337.3012738495159Q986.1734905129634 332.3429405161825 986.1734905129634 328.44710718284927L986.1734905129634 328.44710718284927Q986.1734905129634 325.5929405161825 985.1109905129633 323.94710718284927Q984.0693238462967 322.3012738495159 981.96515717963 322.3012738495159L981.96515717963 322.3012738495159Q977.46515717963 322.3012738495159 972.96515717963 329.6554405161825Q968.46515717963 336.9887738495159 965.6109905129633 347.4887738495159Q962.77765717963 357.9887738495159 962.77765717963 366.40544051618264L962.77765717963 366.40544051618264Q962.77765717963 373.7387738495159 965.3193238462967 376.3637738495159Q967.8609905129633 378.9887738495159 973.5693238462967 378.9887738495159L973.5693238462967 378.9887738495159Q981.6734905129632 378.9887738495159 987.4443238462967 375.2387738495159Q993.21515717963 371.4887738495159 1000.1109905129632 363.8429405161825L1000.1109905129632 363.8429405161825L1005.21515717963 363.8429405161825Q988.5693238462967 391.5929405161825 963.96515717963 391.5929405161825L963.96515717963 391.5929405161825ZM1025.1734905129633 307.5929405161826Q1020.21515717963 307.5929405161826 1016.77765717963 304.1554405161826Q1013.3193238462967 300.6971071828492 1013.3193238462967 295.7387738495159L1013.3193238462967 295.7387738495159Q1013.3193238462967 290.80127384951584 1016.77765717963 287.2804405161825Q1020.21515717963 283.73877384951584 1025.1734905129633 283.73877384951584L1025.1734905129633 283.73877384951584Q1030.1109905129633 283.73877384951584 1033.6526571796298 287.2804405161825Q1037.1734905129633 290.80127384951584 1037.1734905129633 295.7387738495159L1037.1734905129633 295.7387738495159Q1037.1734905129633 300.6971071828492 1033.6526571796298 304.1554405161826Q1030.1109905129633 307.5929405161826 1025.1734905129633 307.5929405161826L1025.1734905129633 307.5929405161826ZM1014.96515717963 391.5929405161825Q1007.77765717963 391.5929405161825 1003.34015717963 387.09294051618264Q998.9234905129632 382.5929405161825 998.9234905129632 373.5929405161825L998.9234905129632 373.5929405161825Q998.9234905129632 369.8429405161825 1000.1109905129632 363.8429405161825L1000.1109905129632 363.8429405161825L1010.3193238462967 315.69710718284927L1031.9234905129633 315.69710718284927L1021.1109905129633 366.69710718284927Q1020.52765717963 368.94710718284927 1020.52765717963 371.4887738495159L1020.52765717963 371.4887738495159Q1020.52765717963 374.4887738495159 1021.9443238462967 375.78044051618264Q1023.3609905129633 377.0512738495159 1026.6734905129633 377.0512738495159L1026.6734905129633 377.0512738495159Q1031.0276571796298 377.0512738495159 1034.7776571796298 373.3637738495159Q1038.5276571796298 369.69710718284927 1040.1734905129633 363.8429405161825L1040.1734905129633 363.8429405161825L1046.4651571796298 363.8429405161825Q1040.9234905129633 380.0512738495159 1032.2151571796298 385.82210718284927Q1023.52765717963 391.5929405161825 1014.96515717963 391.5929405161825L1014.96515717963 391.5929405161825ZM1026.6734905129633 428.19710718284927Q1019.6109905129633 428.19710718284927 1014.2984905129632 423.6137738495159Q1008.96515717963 419.0512738495159 1008.96515717963 411.9887738495159L1008.96515717963 411.9887738495159Q1008.96515717963 405.5512738495159 1012.27765717963 401.3429405161825Q1015.5693238462967 397.1554405161825 1020.8193238462967 394.6762738495159Q1026.0693238462968 392.19710718284927 1034.7776571796298 389.4887738495159L1034.7776571796298 389.4887738495159L1052.9234905129633 303.8429405161826Q1055.9234905129633 289.4471071828492 1063.4859905129633 283.9054405161826Q1071.0693238462968 278.3429405161826 1080.2151571796298 278.3429405161826L1080.2151571796298 278.3429405161826Q1087.2776571796298 278.3429405161826 1092.5901571796298 282.9262738495159Q1097.9234905129633 287.4887738495159 1097.9234905129633 294.5512738495159L1097.9234905129633 294.5512738495159Q1097.9234905129633 297.9887738495159 1097.4651571796298 300.6971071828492L1097.4651571796298 300.6971071828492L1090.4234905129633 300.6971071828492Q1090.7151571796298 297.4054405161825 1090.7151571796298 296.6554405161825L1090.7151571796298 296.6554405161825Q1090.7151571796298 294.2387738495159 1089.0693238462968 292.9054405161826Q1087.4234905129633 291.55127384951584 1085.0276571796298 291.55127384951584L1085.0276571796298 291.55127384951584Q1081.8609905129633 291.55127384951584 1078.8609905129633 294.3221071828492Q1075.8609905129633 297.0929405161825 1074.5276571796298 303.8429405161826L1074.5276571796298 303.8429405161826L1071.9651571796298 315.69710718284927L1082.9234905129633 315.69710718284927L1081.8609905129633 321.69710718284927L1070.7776571796298 321.69710718284927L1053.5276571796298 402.69710718284927Q1050.5276571796298 417.2387738495159 1043.1734905129633 422.71794051618264Q1035.8193238462968 428.19710718284927 1026.6734905129633 428.19710718284927L1026.6734905129633 428.19710718284927ZM1023.21515717963 414.84294051618264Q1029.2151571796298 414.84294051618264 1031.7776571796298 403.1554405161825L1031.7776571796298 403.1554405161825L1033.7151571796298 394.44710718284927Q1025.7776571796298 397.1554405161825 1021.4859905129633 400.6762738495159Q1017.21515717963 404.19710718284927 1017.21515717963 409.90544051618264L1017.21515717963 409.90544051618264Q1017.21515717963 411.69710718284927 1019.02765717963 413.28044051618264Q1020.8193238462967 414.84294051618264 1023.21515717963 414.84294051618264L1023.21515717963 414.84294051618264ZM1105.2776571796298 307.5929405161826Q1100.3193238462968 307.5929405161826 1096.8609905129633 304.1554405161826Q1093.4234905129633 300.6971071828492 1093.4234905129633 295.7387738495159L1093.4234905129633 295.7387738495159Q1093.4234905129633 290.80127384951584 1096.8609905129633 287.2804405161825Q1100.3193238462968 283.73877384951584 1105.2776571796298 283.73877384951584L1105.2776571796298 283.73877384951584Q1110.2151571796298 283.73877384951584 1113.7359905129633 287.2804405161825Q1117.2776571796298 290.80127384951584 1117.2776571796298 295.7387738495159L1117.2776571796298 295.7387738495159Q1117.2776571796298 300.6971071828492 1113.7359905129633 304.1554405161826Q1110.2151571796298 307.5929405161826 1105.2776571796298 307.5929405161826L1105.2776571796298 307.5929405161826ZM1095.0693238462968 391.5929405161825Q1087.8609905129633 391.5929405161825 1083.4443238462968 387.09294051618264Q1079.0276571796298 382.5929405161825 1079.0276571796298 373.5929405161825L1079.0276571796298 373.5929405161825Q1079.0276571796298 369.8429405161825 1080.2151571796298 363.8429405161825L1080.2151571796298 363.8429405161825L1090.4234905129633 315.69710718284927L1112.0276571796298 315.69710718284927L1101.2151571796298 366.69710718284927Q1100.6109905129633 368.94710718284927 1100.6109905129633 371.4887738495159L1100.6109905129633 371.4887738495159Q1100.6109905129633 374.4887738495159 1102.0484905129633 375.78044051618264Q1103.4651571796298 377.0512738495159 1106.7776571796298 377.0512738495159L1106.7776571796298 377.0512738495159Q1111.1109905129633 377.0512738495159 1114.8609905129633 373.3637738495159Q1118.6109905129633 369.69710718284927 1120.2776571796298 363.8429405161825L1120.2776571796298 363.8429405161825L1126.5693238462968 363.8429405161825Q1121.0276571796298 380.0512738495159 1112.3193238462968 385.82210718284927Q1103.6109905129633 391.5929405161825 1095.0693238462968 391.5929405161825L1095.0693238462968 391.5929405161825ZM1141.7151571796298 391.5929405161825Q1130.6109905129633 391.5929405161825 1124.4651571796298 385.82210718284927Q1118.3193238462968 380.0512738495159 1118.3193238462968 367.7387738495159L1118.3193238462968 367.7387738495159Q1118.3193238462968 357.4054405161825 1122.4443238462968 344.94710718284927Q1126.5693238462968 332.4887738495159 1135.6526571796298 323.4262738495159Q1144.7151571796298 314.3429405161825 1158.6734905129633 314.3429405161825L1158.6734905129633 314.3429405161825Q1167.6734905129633 314.3429405161825 1171.4859905129633 318.2387738495159Q1175.3193238462968 322.1554405161825 1175.3193238462968 328.1554405161825L1175.3193238462968 328.1554405161825Q1175.3193238462968 333.4054405161825 1173.0693238462968 336.2387738495159Q1170.8193238462968 339.0929405161825 1167.3609905129633 339.0929405161825L1167.3609905129633 339.0929405161825Q1164.8193238462968 339.0929405161825 1162.1109905129633 337.3012738495159L1162.1109905129633 337.3012738495159Q1163.9234905129633 332.3429405161825 1163.9234905129633 328.44710718284927L1163.9234905129633 328.44710718284927Q1163.9234905129633 325.5929405161825 1162.8609905129633 323.94710718284927Q1161.8193238462968 322.3012738495159 1159.7151571796298 322.3012738495159L1159.7151571796298 322.3012738495159Q1155.2151571796298 322.3012738495159 1150.7151571796298 329.6554405161825Q1146.2151571796298 336.9887738495159 1143.3609905129633 347.4887738495159Q1140.5276571796298 357.9887738495159 1140.5276571796298 366.40544051618264L1140.5276571796298 366.40544051618264Q1140.5276571796298 373.7387738495159 1143.0693238462968 376.3637738495159Q1145.6109905129633 378.9887738495159 1151.3193238462968 378.9887738495159L1151.3193238462968 378.9887738495159Q1159.4234905129633 378.9887738495159 1165.1943238462968 375.2387738495159Q1170.9651571796298 371.4887738495159 1177.8609905129633 363.8429405161825L1177.8609905129633 363.8429405161825L1182.9651571796298 363.8429405161825Q1166.3193238462968 391.5929405161825 1141.7151571796298 391.5929405161825L1141.7151571796298 391.5929405161825Z " fill="#24a3bc" transform="matrix(0.7607653605064404,0,0,0.7607653605064404,-24.95896716330411,31.299867000545873)"/></g></svg>